# xmcd
#
# Track frame offsets:
#	150
#	20852
#	42461
#	55697
#	70292
#	85177
#	109326
#	121929
#	137294
#	160421
#	183333
#	197141
#	224872
#	243567
#
# Disc length: 3603 seconds
#
# Revision: 0
# Processed by: cddbd v1.5.2PL0 Copyright (c) Steve Scherf et al.
# Submitted via: audiograbber 1.83.01
#
DISCID=d30e110e
DTITLE=Tony Luke and Friends - Live In The Barossa
DYEAR=2000
DGENRE=Blues
TTITLE0=I'll Make Love To You
TTITLE1=Mainland Florida
TTITLE2=Rocky Road Blues
TTITLE3=Might As Well Be Blind
TTITLE4=C.C. Rider
TTITLE5=Mojo Working
TTITLE6=Evil Ways
TTITLE7=Inspiration
TTITLE8=Stormy Monday
TTITLE9=Help Me
TTITLE10=Stray Cat Strut
TTITLE11=Crazy Mama
TTITLE12=Grapevine
TTITLE13=Garter Belt 
EXTD=
EXTT0=
EXTT1=
EXTT2=
EXTT3=
EXTT4=
EXTT5=
EXTT6=
EXTT7=
EXTT8=
EXTT9=
EXTT10=
EXTT11=
EXTT12=
EXTT13=
PLAYORDER=
